<?xml version="1.0" encoding="UTF-8"?>
<svg version="1.1" xmlns="http://www.w3.org/2000/svg" width="500" height="500">
<path d="M0 0 C165 0 330 0 500 0 C500 165 500 330 500 500 C335 500 170 500 0 500 C0 335 0 170 0 0 Z " fill="#000000" transform="translate(0,0)"/>
<path d="M0 0 C1.48947144 0.03758423 1.48947144 0.03758423 3.0090332 0.07592773 C4.13237061 0.08954346 5.25570801 0.10315918 6.41308594 0.1171875 C7.61650635 0.16415771 8.81992676 0.21112793 10.05981445 0.25952148 C11.29610596 0.28908936 12.53239746 0.31865723 13.80615234 0.34912109 C16.37998678 0.41488137 18.95352676 0.49327518 21.52661133 0.58374023 C25.2233654 0.69263396 28.90858569 0.70921974 32.60668945 0.69702148 C34.8410811 0.71598537 37.0754585 0.73673721 39.30981445 0.75952148 C40.35032959 0.74800049 41.39084473 0.73647949 42.46289062 0.72460938 C43.43202393 0.74773193 44.40115723 0.77085449 45.3996582 0.79467773 C46.66410767 0.80253296 46.66410767 0.80253296 47.95410156 0.81054688 C51.06082748 1.94941833 52.60795037 3.73507867 54.38960266 6.48365784 C56.29710598 10.7799312 56.08274704 15.18809687 56.03637695 19.81811523 C56.04116058 20.87684341 56.04594421 21.93557159 56.0508728 23.02638245 C56.05426415 25.25783785 56.0451156 27.48934345 56.02416992 29.72070312 C55.99742202 33.12084756 56.02393212 36.51768289 56.0559082 39.91772461 C56.05260345 42.09286205 56.04619587 44.26799745 56.03637695 46.44311523 C56.04649811 47.45168076 56.05661926 48.46024628 56.06704712 49.49937439 C55.976335 55.01214971 55.46547706 59.68711443 52.16680908 64.24952698 C48.3435942 67.33344958 43.62705863 66.74472358 38.9387207 66.61889648 C37.82802719 66.6170636 36.71733368 66.61523071 35.57298279 66.61334229 C33.2268665 66.60127221 30.88078092 66.56978402 28.53515625 66.52026367 C24.95041919 66.44733893 21.36982446 66.43822419 17.78442383 66.43920898 C15.50248718 66.41954135 13.22057846 66.39622499 10.9387207 66.36889648 C9.86981094 66.36444519 8.80090118 66.3599939 7.69960022 66.35540771 C3.33760981 66.2445873 -0.16565759 65.85768685 -4.30517578 64.41821289 C-8.12084541 59.94754604 -7.444239 55.17096383 -7.35424805 49.48608398 C-7.35524506 48.28519135 -7.35624207 47.08429871 -7.35726929 45.84701538 C-7.35258821 43.30671575 -7.33313293 40.76640686 -7.30004883 38.22631836 C-7.25294379 34.34330961 -7.25891472 30.46305504 -7.2722168 26.57983398 C-7.26106005 24.11106765 -7.24683827 21.64231287 -7.22924805 19.17358398 C-7.23107086 18.01404205 -7.23289368 16.85450012 -7.23477173 15.65982056 C-6.99283167 1.85492283 -6.99283167 1.85492283 0 0 Z " fill="#BEFB70" transform="translate(363.627685546875,226.302978515625)"/>
<path d="M0 0 C1.15887222 0.01645569 2.31774445 0.03291138 3.51173401 0.04986572 C5.96231174 0.09271307 8.41266249 0.15086702 10.86254883 0.22314453 C14.61146039 0.32763873 18.35728379 0.36835682 22.10742188 0.40234375 C24.48836417 0.4518931 26.8692327 0.50515528 29.25 0.5625 C30.37095566 0.57222839 31.49191132 0.58195679 32.64683533 0.59197998 C37.58799586 0.77557956 40.35103528 0.95949016 44.3984375 3.93896484 C47.28901456 8.43722545 46.88630155 13.6558238 46.8203125 18.8203125 C46.82272446 19.90265167 46.82513641 20.98499084 46.82762146 22.10012817 C46.82664405 24.38466054 46.81327593 26.6692169 46.78833008 28.95361328 C46.75408704 32.43474628 46.7676627 35.91332987 46.78710938 39.39453125 C46.78020855 41.61980239 46.77053403 43.84506702 46.7578125 46.0703125 C46.76277237 47.10388885 46.76773224 48.13746521 46.77284241 49.20236206 C46.66720826 55.74643972 45.56294071 59.94786775 42.19140625 65.578125 C35.05652068 65.67978765 27.92182287 65.74970091 20.78637695 65.79785156 C18.36052469 65.81793071 15.93472062 65.84519975 13.5090332 65.87988281 C10.01631763 65.92856178 6.52424366 65.9511315 3.03125 65.96875 C1.95181625 65.98939514 0.87238251 66.01004028 -0.23976135 66.03131104 C-6.67119627 66.03321504 -10.54299254 65.34718692 -15.80859375 61.578125 C-15.91011199 53.85525758 -15.98010943 46.13256261 -16.02832031 38.40917969 C-16.0484209 35.78248667 -16.07570579 33.15583831 -16.11035156 30.52929688 C-16.15893539 26.75118988 -16.18157884 22.97367516 -16.19921875 19.1953125 C-16.21986389 18.02322235 -16.24050903 16.8511322 -16.26177979 15.64352417 C-16.26305857 10.98469637 -16.03986072 7.25274512 -14.5222168 2.82568359 C-10.10207871 -0.83529628 -5.55383383 -0.16824592 0 0 Z " fill="#BEFB70" transform="translate(164.80859375,226.421875)"/>
<path d="M0 0 C7.58038432 -0.12690954 15.16049408 -0.21439808 22.74169922 -0.2746582 C25.31992837 -0.2997824 27.89808643 -0.33388759 30.47607422 -0.37719727 C34.18474886 -0.43793664 37.89248075 -0.46623197 41.6015625 -0.48828125 C42.75177887 -0.51408768 43.90199524 -0.5398941 45.08706665 -0.56648254 C54.03039767 -0.56960792 54.03039767 -0.56960792 57.73608398 2.30102539 C60.64847197 5.77308936 60.72832264 8.42452519 60.4375 12.75 C60.41880859 13.41515625 60.40011719 14.0803125 60.38085938 14.765625 C60.19863547 19.88759433 59.56732704 24.89405667 59 30 C51.74 30 44.48 30 37 30 C36.67 25.71 36.34 21.42 36 17 C31.05 17 26.1 17 21 17 C21 35.15 21 53.3 21 72 C26.28 72 31.56 72 37 72 C36.979375 70.55625 36.95875 69.1125 36.9375 67.625 C36.875 63.25 36.875 63.25 38 61 C45.06608191 60.86205046 51.97360585 61.25194283 59 62 C59.10867663 65.02181414 59.18762754 68.03966327 59.25 71.0625 C59.28351563 71.91005859 59.31703125 72.75761719 59.3515625 73.63085938 C59.36445313 74.46552734 59.37734375 75.30019531 59.390625 76.16015625 C59.41157227 76.91949463 59.43251953 77.67883301 59.45410156 78.46118164 C58.78840096 82.18302064 56.98273253 84.7909234 55 88 C47.86511443 88.10166265 40.73041662 88.17157591 33.5949707 88.21972656 C31.16911844 88.23980571 28.74331437 88.26707475 26.31762695 88.30175781 C22.82491138 88.35043678 19.33283741 88.3730065 15.83984375 88.390625 C14.76041 88.41127014 13.68097626 88.43191528 12.5688324 88.45318604 C11.54830276 88.45348816 10.52777313 88.45379028 9.47631836 88.45410156 C8.58585312 88.46298401 7.69538788 88.47186646 6.77793884 88.48101807 C2.90489741 87.81037591 0.32730552 86.07749789 -3 84 C-3.06957377 73.93373196 -3.12284876 63.86752133 -3.15543652 53.80106163 C-3.17107865 49.12656524 -3.19229038 44.45223361 -3.22631836 39.77783203 C-3.25896363 35.26502492 -3.27686394 30.75237609 -3.28463173 26.23945999 C-3.29016596 24.5195021 -3.30097303 22.79955266 -3.31719017 21.07966232 C-3.33903339 18.66668874 -3.34196409 16.25436547 -3.34057617 13.84130859 C-3.351362 13.13352264 -3.36214783 12.42573669 -3.3732605 11.69650269 C-3.34457027 7.07327705 -2.33880338 3.96980432 0 0 Z " fill="#BEFA70" transform="translate(84,204)"/>
<path d="M0 0 C0 0.66 0 1.32 0 2 C0.99 2.33 1.98 2.66 3 3 C3.09265347 10.64070742 3.16374109 18.28135665 3.20724869 25.92249775 C3.22812977 29.47058762 3.25645545 33.01829335 3.30175781 36.56616211 C3.35350697 40.64440613 3.37294074 44.72224626 3.390625 48.80078125 C3.41127014 50.07585037 3.43191528 51.35091949 3.45318604 52.66462708 C3.45348816 53.84562485 3.45379028 55.02662262 3.45410156 56.2434082 C3.46298401 57.28487503 3.47186646 58.32634186 3.48101807 59.39936829 C3 62 3 62 -1 65 C-7.27 65 -13.54 65 -20 65 C-20 50.48 -20 35.96 -20 21 C-24.95 21 -29.9 21 -35 21 C-35 34.86 -35 48.72 -35 63 C-54 65 -54 65 -59 65 C-59 43.88 -59 22.76 -59 1 C-54.05 1 -49.1 1 -44 1 C-43.67 1.99 -43.34 2.98 -43 4 C-42.62866943 3.5155542 -42.25733887 3.0311084 -41.87475586 2.53198242 C-39.25032803 0.38739528 -37.36677908 0.56974012 -34.00390625 0.48828125 C-32.80443359 0.45283203 -31.60496094 0.41738281 -30.36914062 0.38085938 C-29.11294922 0.35830078 -27.85675781 0.33574219 -26.5625 0.3125 C-25.34111328 0.27833984 -24.11972656 0.24417969 -22.86132812 0.20898438 C-15.24050248 0.01025076 -7.62307304 -0.0396347 0 0 Z " fill="#BCF86F" transform="translate(274,227)"/>
<path d="M0 0 C0.8961628 2.83322948 1.7919508 5.66657656 2.6875 8.5 C2.95715576 9.35263428 3.22681152 10.20526855 3.50463867 11.08374023 C4.83810404 15.30422667 6.16625733 19.52616651 7.4765625 23.75390625 C7.70255127 24.48222656 7.92854004 25.21054688 8.16137695 25.9609375 C8.58846044 27.3393907 9.01412825 28.7182835 9.43823242 30.09765625 C10.52958395 33.62239467 10.52958395 33.62239467 12 37 C12.20753906 36.17242187 12.41507812 35.34484375 12.62890625 34.4921875 C15.63398424 22.849082 19.28346022 11.43321702 23 0 C24.24136719 0.27714844 25.48273438 0.55429688 26.76171875 0.83984375 C28.40363951 1.20575752 30.04556695 1.57164136 31.6875 1.9375 C32.50412109 2.11990234 33.32074219 2.30230469 34.16210938 2.49023438 C38.10082483 3.36727628 42.03791195 4.23340455 46 5 C44.73768788 11.15138256 43.12873186 17.09294598 41.1875 23.0625 C40.65347228 24.73041319 40.11962105 26.3983829 39.5859375 28.06640625 C39.32006836 28.89285645 39.05419922 29.71930664 38.78027344 30.57080078 C37.61139755 34.20982303 36.45862574 37.85375784 35.3125 41.5 C35.10520264 42.15274902 34.89790527 42.80549805 34.68432617 43.47802734 C33.21283923 48.16030236 31.99645205 52.86950696 30.96875 57.66796875 C29.45912358 61.30202913 28.29871795 62.7242018 25 65 C20.49105569 65.77396353 16.064977 65.74281848 11.5 65.6875 C10.27667969 65.71521484 9.05335938 65.74292969 7.79296875 65.77148438 C-0.69409003 65.74829569 -0.69409003 65.74829569 -3.85595703 63.93652344 C-7.39559688 60.12338399 -8.5861714 54.77962911 -9.875 49.875 C-10.37596711 48.08474526 -10.88130827 46.29570974 -11.390625 44.5078125 C-11.65037109 43.59547852 -11.91011719 42.68314453 -12.17773438 41.74316406 C-13.49395851 37.35210278 -15.06083723 33.0576247 -16.625 28.75 C-19.67320577 20.2835939 -22.02687186 11.77490528 -24 3 C-21.1259578 2.49387936 -18.25097127 1.99493459 -15.375 1.5 C-14.56675781 1.35691406 -13.75851562 1.21382812 -12.92578125 1.06640625 C-8.56122136 0.32123749 -4.44761871 -0.17272306 0 0 Z " fill="#BDFA70" transform="translate(306,227)"/>
<path d="M0 0 C4.95 0 9.9 0 15 0 C15 9.9 15 19.8 15 30 C10.05 30 5.1 30 0 30 C0 20.1 0 10.2 0 0 Z " fill="#18150D" transform="translate(380,245)"/>
<path d="M0 0 C4.95 0.33 9.9 0.66 15 1 C15 10.57 15 20.14 15 30 C10.38 30 5.76 30 1 30 C0 29 0 29 -0.11352539 26.22436523 C-0.10828857 25.01466064 -0.10305176 23.80495605 -0.09765625 22.55859375 C-0.09443359 21.25341797 -0.09121094 19.94824219 -0.08789062 18.60351562 C-0.07953401 17.2148431 -0.07106905 15.82617123 -0.0625 14.4375 C-0.05748666 13.04492344 -0.05292347 11.65234519 -0.04882812 10.25976562 C-0.03699442 6.83982549 -0.01905831 3.4199075 0 0 Z " fill="#1A190F" transform="translate(172,245)"/>
<path d="M0 0 C2.64 0 5.28 0 8 0 C8.02903577 3.10414702 8.0468107 6.20825909 8.0625 9.3125 C8.07087891 10.19357422 8.07925781 11.07464844 8.08789062 11.98242188 C8.09111328 12.82998047 8.09433594 13.67753906 8.09765625 14.55078125 C8.10289307 15.33106689 8.10812988 16.11135254 8.11352539 16.9152832 C8 19 8 19 7 22 C5.02 22 3.04 22 1 22 C-0.20029908 19.59940183 -0.11459743 18.10639351 -0.09765625 15.4296875 C-0.09443359 14.53378906 -0.09121094 13.63789063 -0.08789062 12.71484375 C-0.07951172 11.77769531 -0.07113281 10.84054687 -0.0625 9.875 C-0.05798828 8.93011719 -0.05347656 7.98523438 -0.04882812 7.01171875 C-0.03702357 4.67441613 -0.02055759 2.33723939 0 0 Z " fill="#020101" transform="translate(176,249)"/>
<path d="M0 0 C1.99954746 -0.04254356 4.00041636 -0.04080783 6 0 C7 1 7 1 7.11352539 3.04125977 C7.10828857 3.91580811 7.10305176 4.79035645 7.09765625 5.69140625 C7.09443359 6.63564453 7.09121094 7.57988281 7.08789062 8.55273438 C7.07951172 9.54595703 7.07113281 10.53917969 7.0625 11.5625 C7.05798828 12.55958984 7.05347656 13.55667969 7.04882812 14.58398438 C7.03700007 17.05604849 7.02051849 19.52799518 7 22 C5.00045254 22.04254356 2.99958364 22.04080783 1 22 C0 21 0 21 -0.11352539 18.95874023 C-0.10828857 18.08419189 -0.10305176 17.20964355 -0.09765625 16.30859375 C-0.09443359 15.36435547 -0.09121094 14.42011719 -0.08789062 13.44726562 C-0.07951172 12.45404297 -0.07113281 11.46082031 -0.0625 10.4375 C-0.05798828 9.44041016 -0.05347656 8.44332031 -0.04882812 7.41601562 C-0.03700007 4.94395151 -0.02051849 2.47200482 0 0 Z " fill="#000000" transform="translate(384,249)"/>
</svg>
