<?xml version="1.0" encoding="UTF-8"?>
<svg version="1.1" xmlns="http://www.w3.org/2000/svg" width="500" height="500">
<path d="M0 0 C165 0 330 0 500 0 C500 165 500 330 500 500 C335 500 170 500 0 500 C0 335 0 170 0 0 Z " fill="#FEFEFE" transform="translate(0,0)"/>
<path d="M0 0 C7.5540873 -0.1627727 15.10799101 -0.28686114 22.66343689 -0.3626852 C26.17257991 -0.39909381 29.68051625 -0.44840628 33.18896484 -0.52807617 C37.23025538 -0.61926296 41.27029502 -0.65275482 45.3125 -0.68359375 C46.5617627 -0.71972275 47.81102539 -0.75585175 49.09814453 -0.79307556 C56.25221168 -0.79627937 60.41831378 -0.02234636 65.65490723 4.9987793 C68.25268061 8.86373046 67.83559968 12.95530811 67.5 17.4375 C67.46390625 18.35982422 67.4278125 19.28214844 67.390625 20.23242188 C67.29693532 22.49268547 67.16603989 24.74409271 67 27 C67.3103418 26.34878174 67.62068359 25.69756348 67.94042969 25.02661133 C70.62240221 22.387558 72.70476649 22.5346573 76.35870361 22.52116394 C77.21486267 22.53867203 78.07102173 22.55618011 78.953125 22.57421875 C79.84553894 22.57750687 80.73795288 22.58079498 81.65740967 22.58418274 C84.52209419 22.59994589 87.38561844 22.64390321 90.25 22.6875 C92.13280273 22.6989963 94.01561674 22.70878 95.8984375 22.71679688 C101.26754674 22.75113898 106.63289713 22.85056578 112 23 C112.78576416 23.02177307 113.57152832 23.04354614 114.38110352 23.065979 C116.50032527 23.13479459 118.61666738 23.22713049 120.734375 23.33203125 C121.90709961 23.38721924 123.07982422 23.44240723 124.28808594 23.49926758 C125.18301758 23.66450928 126.07794922 23.82975098 127 24 C127.99 25.485 127.99 25.485 129 27 C129.33 26.01 129.66 25.02 130 24 C130.83023682 24.00523682 131.66047363 24.01047363 132.51586914 24.01586914 C152.00702622 24.18648104 152.00702622 24.18648104 171.46484375 23.234375 C176.06109715 22.92965102 180.64466972 22.80854051 185.25 22.75 C186.07395264 22.72873047 186.89790527 22.70746094 187.74682617 22.68554688 C193.62376419 22.65108164 193.62376419 22.65108164 195.62744141 24.50927734 C196.08038574 25.00121582 196.53333008 25.4931543 197 26 C198.94588197 26.25796234 198.94588197 26.25796234 201.125 25.875 C202.43210937 25.70484375 202.43210937 25.70484375 203.765625 25.53125 C206.28225278 25.11789085 208.78881111 24.67954914 211.296875 24.21875 C212.05081543 24.08098145 212.80475586 23.94321289 213.58154297 23.80126953 C215.09283668 23.52037547 216.60238635 23.22990414 218.10986328 22.92919922 C225.01422119 21.61536331 225.01422119 21.61536331 228 23 C229.18847656 25.40844727 229.18847656 25.40844727 230.140625 28.56640625 C230.66269531 30.2534668 230.66269531 30.2534668 231.1953125 31.97460938 C231.71738281 33.75061523 231.71738281 33.75061523 232.25 35.5625 C232.61351562 36.75037109 232.97703125 37.93824219 233.3515625 39.16210938 C234.24944773 42.10386494 235.13143749 45.04947924 236 48 C237.92823876 45.10764186 238.74333644 42.97140935 239.7265625 39.67578125 C240.0359375 38.64775391 240.3453125 37.61972656 240.6640625 36.56054688 C240.98117187 35.48869141 241.29828125 34.41683594 241.625 33.3125 C241.94984375 32.22904297 242.2746875 31.14558594 242.609375 30.02929688 C243.4107348 27.35416929 244.20741725 24.67773862 245 22 C251.93548351 23.21807452 258.82085203 24.56571072 265.6875 26.125 C266.90083008 26.39763672 266.90083008 26.39763672 268.13867188 26.67578125 C270.09289747 27.11519292 272.04651747 27.55729659 274 28 C274.31106689 27.1857959 274.62213379 26.3715918 274.94262695 25.53271484 C277 23 277 23 280.94213867 22.41650391 C282.60085869 22.41051227 284.25982334 22.43249668 285.91796875 22.4765625 C287.25303215 22.4836171 287.25303215 22.4836171 288.61506653 22.49081421 C291.47332539 22.51217627 294.32974005 22.56862062 297.1875 22.625 C299.06183091 22.64151678 300.93618229 22.65586235 302.81054688 22.66796875 C307.36188546 22.70540696 311.90803754 22.8161624 316.4574585 22.94934082 C318.87075899 22.99742492 321.27286977 22.97478939 323.68603516 22.93261719 C325.09929116 22.94089091 326.51254137 22.95025808 327.92578125 22.9609375 C329.13274658 22.94595215 330.33971191 22.9309668 331.58325195 22.91552734 C336.0978755 24.34846466 337.93628751 26.47468137 340.63038635 30.29928589 C343.04603098 35.06264785 342.98060662 39.6127583 342.89453125 44.8671875 C342.89885666 45.9825589 342.90318207 47.0979303 342.90763855 48.24710083 C342.90801829 50.59529424 342.89106074 52.94354794 342.85766602 55.29150391 C342.81270385 58.85882673 342.83691575 62.4209133 342.86914062 65.98828125 C342.8609174 68.28126862 342.84867912 70.57424582 342.83203125 72.8671875 C342.84103958 73.91961639 342.85004791 74.97204529 342.85932922 76.05636597 C342.68572193 83.98528769 340.29063574 89.38071009 336 96 C328.33213103 96.12724862 320.66453649 96.21453993 312.99584961 96.2746582 C310.3896263 96.29973204 307.78347283 96.3337997 305.17749023 96.37719727 C301.4215365 96.4381589 297.66651615 96.46628274 293.91015625 96.48828125 C292.75354996 96.51408768 291.59694366 96.5398941 290.4052887 96.56648254 C284.18404131 96.56861754 278.9489511 96.14639442 273.62306213 92.70661926 C271.03851049 89.98901189 270.91007189 87.53499276 270.8278656 83.87748718 C270.86473228 82.50533806 270.86473228 82.50533806 270.90234375 81.10546875 C270.89288223 80.15811356 270.88342072 79.21075836 270.87367249 78.23469543 C270.85312041 75.21736694 270.89446489 72.20452569 270.9375 69.1875 C270.93442488 67.13866167 270.92730969 65.08982514 270.91601562 63.04101562 C270.89718508 58.02615953 270.93384996 53.0144261 271 48 C270.6695166 49.05783691 270.3390332 50.11567383 269.99853516 51.20556641 C265.98833825 64.04059384 265.98833825 64.04059384 264.5234375 68.7109375 C264.14445312 69.92007813 263.76546875 71.12921875 263.375 72.375 C263.16536621 73.03290527 262.95573242 73.69081055 262.73974609 74.36865234 C261.83151169 77.23687205 260.97763586 80.09183574 260.265625 83.015625 C260.05421875 83.87671875 259.8428125 84.7378125 259.625 85.625 C259.39683594 86.69621094 259.39683594 86.69621094 259.1640625 87.7890625 C257.1573992 91.60037601 254.85573072 94.01544422 251 96 C246.1494174 96.90198324 241.42167611 96.88365085 236.5 96.8125 C234.56060547 96.85987305 234.56060547 96.85987305 232.58203125 96.90820312 C222.02889505 96.8702422 222.02889505 96.8702422 217.953125 93.46484375 C213.25396674 87.61394559 211.42910808 79.81390331 209.25 72.75 C208.77924979 71.2845426 208.30660557 69.81969221 207.83203125 68.35546875 C205.34811211 60.62131532 203.10627917 52.84616621 201 45 C201.00452431 45.8699057 201.00452431 45.8699057 201.00914001 46.75738525 C201.03369836 52.79246077 201.00962644 58.8259515 200.95727539 64.86083984 C200.94413381 67.11308024 200.94340302 69.36542858 200.95532227 71.61767578 C200.97030595 74.85557804 200.94069871 78.09046966 200.90234375 81.328125 C200.91659897 82.33554749 200.93085419 83.34296997 200.94554138 84.38092041 C200.80583885 91.12287584 200.80583885 91.12287584 198.59022522 93.53448486 C194.89572687 95.83987571 191.41897713 96.48473464 187.06640625 96.390625 C186.10935791 96.38063477 185.15230957 96.37064453 184.16625977 96.36035156 C182.97701904 96.32393555 181.78777832 96.28751953 180.5625 96.25 C176.746875 96.1675 172.93125 96.085 169 96 C169 81.48 169 66.96 169 52 C166.69 52 164.38 52 162 52 C162 65.86 162 79.72 162 94 C152.48039873 97.17320042 140.95191796 96.13612046 131 96 C130.67 94.68 130.34 93.36 130 92 C129.01 93.98 129.01 93.98 128 96 C120.45617231 96.1017192 112.9125226 96.17159975 105.36816406 96.21972656 C102.8036437 96.23979728 100.23916885 96.26706001 97.67480469 96.30175781 C93.98100529 96.35047355 90.28781291 96.37301513 86.59375 96.390625 C84.8839093 96.42159271 84.8839093 96.42159271 83.13952637 96.45318604 C76.19655908 96.45512736 71.99611968 95.48367321 66 92 C65.01 92 64.02 92 63 92 C62.01 93.98 62.01 93.98 61 96 C53.35044242 96.12736747 45.70116097 96.21458927 38.05078125 96.2746582 C35.45139344 96.29971449 32.85207547 96.33376892 30.25292969 96.37719727 C26.50438141 96.43823684 22.75676922 96.46630035 19.0078125 96.48828125 C17.85636749 96.51408768 16.70492249 96.5398941 15.51858521 96.56648254 C7.84099652 96.56911751 2.52872665 95.06238918 -4 91 C-4.09290533 80.46404038 -4.16386899 69.92817911 -4.20724869 59.39189243 C-4.2280746 54.49882544 -4.25630051 49.60603984 -4.30175781 44.71313477 C-4.34539436 39.98633517 -4.36917464 35.25980531 -4.37950897 30.53281975 C-4.38686849 28.73438207 -4.40123967 26.93595824 -4.42292023 25.13763618 C-4.62376164 7.77959896 -4.62376164 7.77959896 0 0 Z " fill="#1D1914" transform="translate(81,200)"/>
<path d="M0 0 C1.48947144 0.03758423 1.48947144 0.03758423 3.0090332 0.07592773 C4.13237061 0.08954346 5.25570801 0.10315918 6.41308594 0.1171875 C7.61650635 0.16415771 8.81992676 0.21112793 10.05981445 0.25952148 C11.29610596 0.28908936 12.53239746 0.31865723 13.80615234 0.34912109 C16.37998678 0.41488137 18.95352676 0.49327518 21.52661133 0.58374023 C25.2233654 0.69263396 28.90858569 0.70921974 32.60668945 0.69702148 C34.8410811 0.71598537 37.0754585 0.73673721 39.30981445 0.75952148 C40.35032959 0.74800049 41.39084473 0.73647949 42.46289062 0.72460938 C43.43202393 0.74773193 44.40115723 0.77085449 45.3996582 0.79467773 C46.66410767 0.80253296 46.66410767 0.80253296 47.95410156 0.81054688 C51.06082748 1.94941833 52.60795037 3.73507867 54.38960266 6.48365784 C56.29710598 10.7799312 56.08274704 15.18809687 56.03637695 19.81811523 C56.04116058 20.87684341 56.04594421 21.93557159 56.0508728 23.02638245 C56.05426415 25.25783785 56.0451156 27.48934345 56.02416992 29.72070312 C55.99742202 33.12084756 56.02393212 36.51768289 56.0559082 39.91772461 C56.05260345 42.09286205 56.04619587 44.26799745 56.03637695 46.44311523 C56.04649811 47.45168076 56.05661926 48.46024628 56.06704712 49.49937439 C55.976335 55.01214971 55.46547706 59.68711443 52.16680908 64.24952698 C48.3435942 67.33344958 43.62705863 66.74472358 38.9387207 66.61889648 C37.82802719 66.6170636 36.71733368 66.61523071 35.57298279 66.61334229 C33.2268665 66.60127221 30.88078092 66.56978402 28.53515625 66.52026367 C24.95041919 66.44733893 21.36982446 66.43822419 17.78442383 66.43920898 C15.50248718 66.41954135 13.22057846 66.39622499 10.9387207 66.36889648 C9.86981094 66.36444519 8.80090118 66.3599939 7.69960022 66.35540771 C3.33760981 66.2445873 -0.16565759 65.85768685 -4.30517578 64.41821289 C-8.12084541 59.94754604 -7.444239 55.17096383 -7.35424805 49.48608398 C-7.35524506 48.28519135 -7.35624207 47.08429871 -7.35726929 45.84701538 C-7.35258821 43.30671575 -7.33313293 40.76640686 -7.30004883 38.22631836 C-7.25294379 34.34330961 -7.25891472 30.46305504 -7.2722168 26.57983398 C-7.26106005 24.11106765 -7.24683827 21.64231287 -7.22924805 19.17358398 C-7.23107086 18.01404205 -7.23289368 16.85450012 -7.23477173 15.65982056 C-6.99283167 1.85492283 -6.99283167 1.85492283 0 0 Z " fill="#BEFB70" transform="translate(363.627685546875,226.302978515625)"/>
<path d="M0 0 C1.15887222 0.01645569 2.31774445 0.03291138 3.51173401 0.04986572 C5.96231174 0.09271307 8.41266249 0.15086702 10.86254883 0.22314453 C14.61146039 0.32763873 18.35728379 0.36835682 22.10742188 0.40234375 C24.48836417 0.4518931 26.8692327 0.50515528 29.25 0.5625 C30.37095566 0.57222839 31.49191132 0.58195679 32.64683533 0.59197998 C37.58732098 0.77555448 40.35033935 0.95855336 44.39624023 3.93896484 C47.28580347 8.43577753 46.90585072 13.65513284 46.85546875 18.8203125 C46.86025238 19.90265167 46.86503601 20.98499084 46.8699646 22.10012817 C46.87335979 24.38463803 46.86418423 26.66919672 46.84326172 28.95361328 C46.81654509 32.43503285 46.84299806 35.91321295 46.875 39.39453125 C46.87169482 41.61979874 46.86528636 43.84506422 46.85546875 46.0703125 C46.8655899 47.10388885 46.87571106 48.13746521 46.88613892 49.20236206 C46.79646506 54.78431604 46.32046901 59.52199378 42.97024536 64.13955688 C39.20917122 67.18118179 34.63102023 66.62693883 30.01171875 66.5 C28.92559296 66.49816711 27.83946716 66.49633423 26.72042847 66.4944458 C24.4255829 66.4823758 22.13076873 66.45088769 19.83642578 66.40136719 C16.33507344 66.32851341 12.8379674 66.31932726 9.3359375 66.3203125 C7.10282823 66.30064176 4.86974749 66.27732406 2.63671875 66.25 C1.59484406 66.24554871 0.55296936 66.24109741 -0.52047729 66.23651123 C-6.79425504 66.07386605 -10.64859717 65.20631828 -15.80859375 61.578125 C-15.91011199 53.85525758 -15.98010943 46.13256261 -16.02832031 38.40917969 C-16.0484209 35.78248667 -16.07570579 33.15583831 -16.11035156 30.52929688 C-16.15893539 26.75118988 -16.18157884 22.97367516 -16.19921875 19.1953125 C-16.21986389 18.02322235 -16.24050903 16.8511322 -16.26177979 15.64352417 C-16.26305857 10.98469637 -16.03986072 7.25274512 -14.5222168 2.82568359 C-10.10207871 -0.83529628 -5.55383383 -0.16824592 0 0 Z " fill="#BEFB70" transform="translate(164.80859375,226.421875)"/>
<path d="M0 0 C7.58038432 -0.12690954 15.16049408 -0.21439808 22.74169922 -0.2746582 C25.31992837 -0.2997824 27.89808643 -0.33388759 30.47607422 -0.37719727 C34.18474886 -0.43793664 37.89248075 -0.46623197 41.6015625 -0.48828125 C42.75177887 -0.51408768 43.90199524 -0.5398941 45.08706665 -0.56648254 C54.03039767 -0.56960792 54.03039767 -0.56960792 57.73608398 2.30102539 C60.64847197 5.77308936 60.72832264 8.42452519 60.4375 12.75 C60.41880859 13.41515625 60.40011719 14.0803125 60.38085938 14.765625 C60.19863547 19.88759433 59.56732704 24.89405667 59 30 C51.74 30 44.48 30 37 30 C36.67 25.71 36.34 21.42 36 17 C31.05 17 26.1 17 21 17 C21 35.15 21 53.3 21 72 C24.63 72 28.26 72 32 72 C33.32 72.33 34.64 72.66 36 73 C36.06058594 72.21753906 36.12117188 71.43507813 36.18359375 70.62890625 C36.26738281 69.61699219 36.35117188 68.60507812 36.4375 67.5625 C36.51871094 66.55316406 36.59992188 65.54382813 36.68359375 64.50390625 C37 62 37 62 38 61 C45.00630768 60.50984679 52.03765056 61.25876128 59 62 C59.10867663 65.02181414 59.18762754 68.03966327 59.25 71.0625 C59.28351563 71.91005859 59.31703125 72.75761719 59.3515625 73.63085938 C59.36445313 74.46552734 59.37734375 75.30019531 59.390625 76.16015625 C59.41157227 76.91949463 59.43251953 77.67883301 59.45410156 78.46118164 C58.78840096 82.18302064 56.98273253 84.7909234 55 88 C47.86511443 88.10166265 40.73041662 88.17157591 33.5949707 88.21972656 C31.16911844 88.23980571 28.74331437 88.26707475 26.31762695 88.30175781 C22.82491138 88.35043678 19.33283741 88.3730065 15.83984375 88.390625 C14.76041 88.41127014 13.68097626 88.43191528 12.5688324 88.45318604 C11.54830276 88.45348816 10.52777313 88.45379028 9.47631836 88.45410156 C8.58585312 88.46298401 7.69538788 88.47186646 6.77793884 88.48101807 C2.90489741 87.81037591 0.32730552 86.07749789 -3 84 C-3.06957377 73.93373196 -3.12284876 63.86752133 -3.15543652 53.80106163 C-3.17107865 49.12656524 -3.19229038 44.45223361 -3.22631836 39.77783203 C-3.25896363 35.26502492 -3.27686394 30.75237609 -3.28463173 26.23945999 C-3.29016596 24.5195021 -3.30097303 22.79955266 -3.31719017 21.07966232 C-3.33903339 18.66668874 -3.34196409 16.25436547 -3.34057617 13.84130859 C-3.351362 13.13352264 -3.36214783 12.42573669 -3.3732605 11.69650269 C-3.34457027 7.07327705 -2.33880338 3.96980432 0 0 Z " fill="#BEFA70" transform="translate(84,204)"/>
<path d="M0 0 C0.88703613 -0.02755371 1.77407227 -0.05510742 2.68798828 -0.08349609 C3.44200928 -0.11548096 4.19603027 -0.14746582 4.97290039 -0.18041992 C7.59951189 0.23159108 8.30264176 1.01890064 9.91064453 3.12353516 C10.29832458 5.70397949 10.29832458 5.70397949 10.31469727 8.83251953 C10.32738144 10.00383423 10.34006561 11.17514893 10.35313416 12.38195801 C10.35019852 13.64761597 10.34726288 14.91327393 10.34423828 16.21728516 C10.34948013 17.51549194 10.35472198 18.81369873 10.36012268 20.15124512 C10.36905582 22.89845496 10.36662828 25.64537413 10.35668945 28.39257812 C10.34519234 31.9136443 10.3654196 35.43370871 10.39460659 38.95464325 C10.4173588 42.31307758 10.41050302 45.6712755 10.40673828 49.02978516 C10.41797226 50.29544312 10.42920624 51.56110107 10.44078064 52.8651123 C10.42670921 54.62208435 10.42670921 54.62208435 10.41235352 56.41455078 C10.41218735 57.44696899 10.41202118 58.47938721 10.41184998 59.54309082 C9.91064453 62.12353516 9.91064453 62.12353516 5.91064453 65.12353516 C-0.35935547 65.12353516 -6.62935547 65.12353516 -13.08935547 65.12353516 C-13.08935547 50.27353516 -13.08935547 35.42353516 -13.08935547 20.12353516 C-18.03935547 20.12353516 -22.98935547 20.12353516 -28.08935547 20.12353516 C-28.08935547 34.31353516 -28.08935547 48.50353516 -28.08935547 63.12353516 C-47.08935547 65.12353516 -47.08935547 65.12353516 -51.08935547 65.12353516 C-51.08935547 44.33353516 -51.08935547 23.54353516 -51.08935547 2.12353516 C-46.13935547 2.12353516 -41.18935547 2.12353516 -36.08935547 2.12353516 C-36.08935547 2.78353516 -36.08935547 3.44353516 -36.08935547 4.12353516 C-35.72849854 3.63908936 -35.3676416 3.15464355 -34.99584961 2.65551758 C-32.23873555 0.44001102 -30.09103544 0.68977163 -26.58544922 0.61181641 C-25.28671875 0.57636719 -23.98798828 0.54091797 -22.64990234 0.50439453 C-21.27555732 0.48137176 -19.9012083 0.45858681 -18.52685547 0.43603516 C-17.17981751 0.40283295 -15.8328107 0.36834061 -14.48583984 0.33251953 C-11.87982561 0.26958474 -9.27348988 0.21862116 -6.66699219 0.18066406 C-4.44412904 0.14516864 -2.22137126 0.08882676 0 0 Z " fill="#BFFC70" transform="translate(267.08935546875,226.87646484375)"/>
<path d="M0 0 C0.27972656 0.91136719 0.55945313 1.82273438 0.84765625 2.76171875 C4.39045353 14.23334744 8.17106213 25.62106718 12 37 C12.19110352 36.30551758 12.38220703 35.61103516 12.57910156 34.89550781 C13.46611369 31.67942173 14.35803471 28.46471571 15.25 25.25 C15.55035156 24.15816406 15.85070312 23.06632812 16.16015625 21.94140625 C18.21700085 14.54551823 20.5016895 7.25856048 23 0 C24.24136719 0.27714844 25.48273438 0.55429688 26.76171875 0.83984375 C28.40363951 1.20575752 30.04556695 1.57164136 31.6875 1.9375 C32.50412109 2.11990234 33.32074219 2.30230469 34.16210938 2.49023438 C38.10082483 3.36727628 42.03791195 4.23340455 46 5 C44.73768788 11.15138256 43.12873186 17.09294598 41.1875 23.0625 C40.65347228 24.73041319 40.11962105 26.3983829 39.5859375 28.06640625 C39.32006836 28.89285645 39.05419922 29.71930664 38.78027344 30.57080078 C37.6113988 34.20981914 36.45807408 37.85358693 35.3125 41.5 C35.10665283 42.15129883 34.90080566 42.80259766 34.6887207 43.47363281 C33.20021209 48.22860773 31.91696493 53.01442794 30.7734375 57.86328125 C29.90430827 60.26436049 29.00014632 61.43135733 27 63 C26.34 63 25.68 63 25 63 C25 63.66 25 64.32 25 65 C20.58355402 65.11608127 16.16749983 65.1872132 11.75 65.25 C10.49574219 65.28351563 9.24148438 65.31703125 7.94921875 65.3515625 C6.14130859 65.37089844 6.14130859 65.37089844 4.296875 65.390625 C3.18666992 65.41157227 2.07646484 65.43251953 0.93261719 65.45410156 C-2 65 -2 65 -4.21826172 63.46411133 C-6.53528721 60.25970762 -7.66127469 56.92160849 -8.8046875 53.18359375 C-9.04951874 52.41836395 -9.29434998 51.65313416 -9.54660034 50.86471558 C-10.33450757 48.39253272 -11.10497906 45.91530584 -11.875 43.4375 C-12.40941315 41.74795263 -12.94489574 40.05874317 -13.48144531 38.36987305 C-14.52844088 35.06796236 -15.56874108 31.76407386 -16.60253906 28.45800781 C-17.75754673 24.76607696 -18.93092695 21.080467 -20.1171875 17.3984375 C-20.66169472 15.70320091 -21.20599444 14.00789764 -21.75 12.3125 C-21.98960449 11.56734131 -22.22920898 10.82218262 -22.47607422 10.05444336 C-24 5.23298658 -24 5.23298658 -24 3 C-21.31374546 2.49236135 -18.62631617 1.99372803 -15.9375 1.5 C-15.18533203 1.35691406 -14.43316406 1.21382812 -13.65820312 1.06640625 C-9.02259825 0.223569 -4.7110385 -0.15015262 0 0 Z " fill="#BEFA70" transform="translate(306,227)"/>
<path d="M0 0 C2.64 0 5.28 0 8 0 C8.33 4.29 8.66 8.58 9 13 C17.91 13 26.82 13 36 13 C36 20.92 36 28.84 36 37 C27.42 37 18.84 37 10 37 C9.34 40.3 8.68 43.6 8 47 C5.36 47 2.72 47 0 47 C0 31.49 0 15.98 0 0 Z " fill="#F9F8F8" transform="translate(109,225)"/>
<path d="M0 0 C4.95 0 9.9 0 15 0 C15 9.9 15 19.8 15 30 C10.05 30 5.1 30 0 30 C0 20.1 0 10.2 0 0 Z " fill="#1B1810" transform="translate(380,245)"/>
<path d="M0 0 C4.95 0.33 9.9 0.66 15 1 C15 10.57 15 20.14 15 30 C10.38 30 5.76 30 1 30 C0 29 0 29 -0.11352539 26.22436523 C-0.10828857 25.01466064 -0.10305176 23.80495605 -0.09765625 22.55859375 C-0.09443359 21.25341797 -0.09121094 19.94824219 -0.08789062 18.60351562 C-0.07953401 17.2148431 -0.07106905 15.82617123 -0.0625 14.4375 C-0.05748666 13.04492344 -0.05292347 11.65234519 -0.04882812 10.25976562 C-0.03699442 6.83982549 -0.01905831 3.4199075 0 0 Z " fill="#2A2820" transform="translate(172,245)"/>
<path d="M0 0 C2.31 0 4.62 0 7 0 C7 7.26 7 14.52 7 22 C4.69 22 2.38 22 0 22 C0 14.74 0 7.48 0 0 Z " fill="#EFEFEF" transform="translate(384,249)"/>
<path d="M0 0 C1.98 0 3.96 0 6 0 C6 6.93 6 13.86 6 21 C4.02 21 2.04 21 0 21 C0 14.07 0 7.14 0 0 Z " fill="#FDFDFD" transform="translate(177,250)"/>
</svg>
